<?xml version="1.0" standalone="no"?>
<!DOCTYPE svg PUBLIC "-//W3C//DTD SVG 20010904//EN"
 "https://www.w3.org/TR/2001/REC-SVG-20010904/DTD/svg10.dtd">
<svg version="1.0" xmlns="https://www.w3.org/2000/svg"
 width="349.000000pt" height="349.000000pt" viewBox="0 0 349.000000 349.000000"
 preserveAspectRatio="xMidYMid meet">
<metadata>
Created by potrace 1.11, written by Peter Selinger 2001-2013
</metadata>
<g transform="translate(0.000000,349.000000) scale(0.100000,-0.100000)"
fill="#000000" stroke="none">
<path d="M1585 3484 c-142 -19 -193 -29 -280 -51 -203 -52 -406 -149 -585
-277 -106 -76 -256 -219 -264 -252 -4 -14 -17 -29 -30 -34 -26 -9 -117 -126
-165 -211 l-31 -56 82 -7 c46 -4 117 -9 158 -12 41 -2 117 -9 169 -15 97 -11
110 -8 111 29 0 10 -10 12 -40 7 -42 -7 -49 1 -34 39 9 23 129 23 138 0 9 -22
-1 -34 -30 -34 -15 0 -24 -6 -24 -15 0 -12 14 -15 64 -15 49 0 65 -4 70 -16 3
-8 10 -12 16 -9 5 3 10 -1 10 -10 0 -10 5 -13 11 -9 8 5 10 -1 7 -19 -4 -19
-1 -24 10 -20 12 5 11 0 -2 -26 -17 -32 -22 -34 -68 -31 -26 1 -28 -1 -28 -40
0 -25 -4 -39 -10 -35 -5 3 -10 19 -10 36 0 25 -8 33 -30 31 -3 0 -14 -4 -24
-8 -13 -5 -17 -4 -12 4 3 6 -2 15 -11 21 -13 8 7 10 79 11 53 0 99 3 101 8 5
6 -47 13 -98 11 -11 0 -118 1 -239 1 -156 2 -216 -1 -212 -9 4 -6 33 -11 64
-12 46 0 52 -2 34 -10 -13 -5 -28 -7 -33 -4 -5 3 -24 3 -43 0 -46 -9 -55 -35
-58 -162 -2 -101 -2 -103 27 -133 27 -28 28 -33 17 -63 -7 -19 -12 -45 -12
-59 0 -23 -8 -29 -70 -53 -66 -25 -120 -69 -120 -98 0 -7 -11 8 -23 32 -27 53
-60 79 -109 87 -34 6 -38 4 -45 -22 -10 -38 -10 -395 0 -456 l8 -48 143 0 144
0 6 30 c5 27 9 30 44 30 21 0 44 -6 51 -12 10 -11 11 -10 6 5 -4 10 -2 17 5
17 6 0 8 -5 5 -10 -8 -13 1 -13 27 1 11 6 22 8 25 5 4 -3 -8 -11 -26 -17 -21
-7 -31 -17 -29 -28 4 -22 78 -27 117 -7 40 21 58 21 41 1 -11 -13 2 -15 111
-15 151 0 449 -10 467 -15 6 -3 12 -14 12 -25 0 -12 9 -40 21 -63 11 -23 22
-49 24 -57 2 -8 7 -25 11 -37 8 -27 77 -25 -633 -23 l-522 1 17 -50 c9 -28 25
-60 34 -71 10 -11 18 -24 18 -28 0 -14 45 -34 71 -32 13 1 26 1 29 0 3 -2 23
-4 45 -5 22 -2 48 -6 58 -10 13 -5 16 -3 12 7 -5 12 12 21 67 37 153 47 143
45 195 26 60 -23 143 -22 160 2 11 14 40 18 175 23 90 4 163 6 164 6 1 -1 4
-14 8 -31 6 -24 5 -28 -5 -17 -7 6 -19 12 -26 12 -11 0 -11 -4 1 -22 12 -20
12 -28 0 -55 -12 -28 -19 -33 -50 -33 -19 0 -44 -5 -55 -11 -17 -9 -25 -6 -47
16 -34 35 -111 79 -120 70 -4 -3 6 -16 23 -28 77 -56 120 -102 121 -130 1 -20
-3 -27 -13 -23 -8 3 -12 2 -9 -2 2 -4 -25 -7 -60 -7 -45 0 -64 -4 -64 -13 0
-20 24 -24 71 -12 74 19 99 31 99 51 0 25 14 31 76 35 52 3 54 2 54 -23 0 -39
38 -161 72 -228 31 -62 15 -55 -31 15 l-23 35 7 -30 c3 -16 9 -39 12 -50 5
-19 5 -19 -15 -2 -11 10 -26 32 -32 48 -7 16 -14 28 -17 26 -4 -4 59 -168 96
-248 11 -25 23 -57 25 -70 3 -13 5 -26 6 -29 2 -3 2 -8 1 -12 0 -5 7 -8 18 -8
10 0 27 -12 37 -27 9 -16 25 -33 33 -40 9 -6 16 -20 16 -30 0 -10 7 -18 15
-19 25 -1 65 -21 79 -38 7 -9 20 -16 27 -16 7 0 11 -6 8 -14 -6 -15 -34 -27
-69 -29 -22 -2 -22 -3 0 -67 22 -61 30 -67 105 -79 92 -15 280 -26 280 -16 0
10 -44 71 -76 105 -13 14 -42 48 -65 75 -22 28 -54 65 -70 83 -16 19 -29 43
-29 53 0 18 5 16 53 -13 28 -18 65 -40 80 -48 35 -17 131 -101 212 -186 l60
-62 94 14 c52 8 96 16 99 18 9 9 -10 26 -29 26 -10 0 -19 7 -19 15 0 8 -7 15
-15 15 -16 0 -27 8 -66 43 -10 9 -19 14 -19 10 -1 -5 -9 2 -18 13 -10 12 -32
25 -49 28 -17 4 -45 20 -62 37 -33 31 -41 52 -16 43 8 -4 15 -10 15 -15 0 -4
65 -7 144 -6 93 1 142 6 138 12 -3 6 2 4 11 -4 9 -7 17 -10 17 -5 0 5 20 10
45 12 25 1 45 -1 45 -5 0 -4 28 -9 62 -11 43 -1 65 -7 71 -17 4 -8 20 -21 35
-29 l28 -14 0 44 c1 31 -3 44 -12 44 -8 0 -14 4 -14 10 0 10 -94 5 -111 -6 -5
-3 -9 1 -9 8 0 17 94 47 113 36 9 -5 20 -2 28 8 7 8 8 14 3 13 -24 -4 -54 2
-54 12 0 7 9 9 23 6 12 -4 29 -2 37 3 12 8 12 10 -5 11 -11 1 -24 1 -28 0 -5
-1 -11 8 -14 19 -6 24 -5 24 -48 6 -18 -8 -35 -11 -37 -6 -3 7 -133 -11 -173
-24 -11 -4 -6 0 10 9 73 41 79 47 62 57 -9 4 -14 15 -11 23 9 22 -21 29 -48
11 -14 -9 -60 -26 -104 -37 -94 -26 -265 -31 -333 -11 -63 19 -44 25 25 7 67
-17 114 -19 114 -5 0 5 -11 12 -25 16 -15 4 -22 11 -18 18 14 22 12 41 -8 62
-11 12 -17 24 -12 27 15 9 2 77 -16 86 -9 5 -36 12 -60 16 -42 7 -44 6 -38
-15 5 -18 0 -24 -24 -33 -20 -8 -32 -21 -37 -40 -4 -15 -11 -28 -16 -27 -5 1
-12 -3 -16 -10 -5 -8 -22 -3 -56 16 -27 15 -59 33 -72 40 -48 25 -143 105
-172 146 -43 59 -64 136 -51 185 6 21 11 75 11 121 0 45 3 82 8 83 4 0 14 2
23 4 11 2 19 -10 27 -41 7 -24 18 -44 24 -44 9 0 8 -4 -2 -11 -12 -9 -12 -10
3 -5 18 6 51 -16 41 -27 -3 -2 7 -8 23 -11 21 -6 24 -9 12 -17 -12 -7 -11 -9
3 -9 21 0 34 -20 19 -29 -7 -4 3 -8 20 -8 18 0 37 -6 43 -15 6 -8 17 -13 24
-11 6 3 12 0 12 -5 0 -15 61 -37 93 -33 16 1 44 -5 62 -13 35 -17 120 -13 109
5 -3 5 2 9 11 9 9 0 23 7 32 15 8 9 29 19 46 22 17 3 32 14 34 24 3 11 9 17
13 14 5 -3 15 1 23 9 8 8 17 12 21 9 3 -4 6 2 6 11 0 12 5 16 15 12 10 -4 15
1 15 15 0 11 4 18 9 15 5 -3 17 6 27 19 10 14 24 25 30 25 7 0 15 15 18 34 4
19 13 37 21 40 8 3 15 15 15 26 0 11 5 20 10 20 6 0 10 5 10 11 0 7 8 18 18
26 9 8 11 12 5 8 -7 -3 -13 -1 -13 4 0 6 4 11 8 11 11 0 82 136 82 156 0 8 4
13 9 10 5 -3 14 8 21 24 12 28 16 30 74 31 115 2 181 -3 193 -15 10 -9 11 -35
5 -101 l-7 -90 -142 -3 c-79 -1 -143 -7 -143 -11 0 -5 30 -26 68 -47 37 -20
88 -55 114 -76 51 -42 149 -79 483 -180 94 -28 200 -64 237 -79 l67 -28 61
120 c34 66 67 138 75 159 l14 40 -192 2 c-169 2 -176 3 -55 5 l137 4 3 27 c3
25 7 27 51 30 29 2 47 -1 47 -8 0 -6 -10 -8 -25 -4 -21 5 -25 3 -25 -15 0 -24
45 -40 63 -22 6 6 7 11 2 11 -6 0 -5 4 2 8 15 9 56 163 77 284 42 239 26 519
-40 748 -30 101 -33 107 -27 47 3 -32 1 -82 -5 -110 -7 -29 -16 -194 -22 -368
-5 -174 -13 -324 -16 -333 -4 -10 -11 -13 -18 -8 -6 5 -72 5 -146 0 -74 -4
-141 -6 -148 -3 -7 3 -10 14 -8 27 3 13 7 127 11 253 3 127 8 317 12 423 l6
194 25 9 c14 6 35 8 46 6 17 -2 14 -6 -16 -19 -30 -13 -36 -20 -31 -38 5 -20
11 -22 52 -17 25 3 57 8 71 11 14 3 -9 -6 -51 -19 l-76 -25 -7 -238 c-4 -130
-9 -256 -12 -279 -6 -42 -5 -43 22 -44 29 -1 29 -1 4 -8 -24 -7 -25 -9 -28
-114 l-2 -108 132 7 c73 4 136 9 139 13 4 3 9 56 12 118 l6 112 -37 4 -37 4
38 1 37 2 1 88 c0 48 2 94 3 102 9 46 17 420 9 420 -5 0 -33 -7 -62 -16 -29
-8 -55 -13 -57 -11 -3 2 25 13 61 23 59 17 65 21 65 45 0 36 -138 309 -156
309 -8 0 -14 8 -14 18 0 29 -97 158 -197 263 -265 275 -580 444 -968 516 -76
14 -386 26 -450 17z m272 -354 c9 0 13 -6 10 -14 -3 -8 1 -20 8 -26 8 -7 13
-16 10 -20 -3 -5 5 -12 17 -16 13 -4 24 -2 26 5 6 18 19 13 25 -10 4 -16 11
-19 26 -14 15 4 21 2 21 -8 0 -9 23 -21 58 -32 31 -10 68 -29 81 -42 13 -12
31 -23 39 -23 8 0 12 -3 9 -7 -4 -3 -1 -13 6 -21 10 -13 9 -14 -3 -7 -8 4 -25
17 -37 28 -24 22 -56 17 -47 -8 3 -8 2 -15 -3 -15 -13 0 -86 51 -105 75 -17
20 -17 20 -18 -5 -1 -14 -4 -19 -7 -11 -7 18 -74 81 -88 82 -5 1 -14 1 -18 0
-5 -1 -6 3 -3 8 4 5 1 13 -5 17 -6 3 -14 2 -18 -4 -4 -7 -15 -4 -31 9 l-25 19
30 -2 c22 -2 29 1 26 12 -8 34 -11 54 -5 43 3 -7 13 -13 21 -13z m-217 -12 c0
-6 -7 -7 -16 -4 -9 3 -18 6 -20 6 -3 0 -3 4 1 10 7 11 35 2 35 -12z m115 2
c-3 -5 -16 -10 -28 -10 -18 0 -19 2 -7 10 20 13 43 13 35 0z m-79 -15 c4 -8
12 -15 19 -15 8 0 17 -5 20 -10 9 -14 -32 -7 -47 8 -7 7 -8 12 -2 12 5 0 2 5
-6 10 -10 7 -11 10 -2 10 7 0 15 -7 18 -15z m-217 1 c-2 -2 -17 -6 -34 -10
-22 -5 -26 -4 -15 4 14 9 59 15 49 6z m498 -12 c-3 -3 -12 -4 -19 -1 -8 3 -5
6 6 6 11 1 17 -2 13 -5z m-327 -19 c0 -8 -8 -15 -17 -14 -11 0 -13 3 -5 6 6 2
10 9 6 14 -3 5 0 9 5 9 6 0 11 -7 11 -15z m47 -14 c11 -17 10 -18 -13 -7 -26
12 -32 26 -11 26 7 0 17 -8 24 -19z m97 5 c-3 -8 -12 -12 -20 -9 -17 6 -9 23
11 23 8 0 12 -6 9 -14z m-44 -36 c0 -5 -7 -7 -15 -4 -8 4 -15 8 -15 10 0 2 7
4 15 4 8 0 15 -4 15 -10z m130 -60 c11 -11 16 -21 11 -24 -4 -3 -25 13 -47 36
-33 36 -35 39 -11 24 16 -9 37 -26 47 -36z m-230 25 c16 -19 0 -19 -26 0 -16
12 -16 14 -3 15 9 0 22 -7 29 -15z m280 -45 c0 -5 -2 -10 -4 -10 -3 0 -8 5
-11 10 -3 6 -1 10 4 10 6 0 11 -4 11 -10z m-815 -58 c-3 -8 -5 -17 -5 -22 0
-5 -7 -16 -16 -25 -12 -11 -20 -13 -29 -5 -7 6 -70 13 -141 16 -71 3 -149 7
-172 10 -43 5 -43 6 -26 26 17 18 29 19 206 16 152 -2 187 -6 183 -16z m1142
-4 c-3 -8 -6 -5 -6 6 -1 11 2 17 5 13 3 -3 4 -12 1 -19z m-159 -113 c121 -61
203 -160 244 -292 7 -24 16 -43 20 -43 5 0 8 -7 8 -16 0 -8 -4 -12 -10 -9 -6
3 -10 -4 -9 -17 0 -13 3 -17 6 -10 2 6 8 12 13 12 16 0 48 -97 54 -163 6 -74
12 -91 28 -81 7 4 8 2 4 -4 -11 -19 24 -14 108 13 82 27 106 31 91 16 -6 -5
-50 -21 -100 -36 -49 -15 -97 -33 -105 -41 -12 -12 -11 -17 9 -35 23 -22 23
-22 16 -213 l-7 -191 -29 -27 c-29 -28 -72 -37 -84 -18 -8 13 -26 2 -23 -13 7
-38 -53 -199 -84 -224 -7 -6 -30 -10 -50 -9 -21 1 -38 -2 -38 -6 0 -5 4 -8 9
-8 13 0 22 -57 12 -81 -7 -20 -8 -20 -14 -5 -4 10 -12 14 -18 11 -6 -4 -10 -1
-8 6 3 28 -1 59 -9 59 -5 0 -7 -18 -5 -41 3 -34 0 -42 -17 -46 -11 -3 -20 -10
-20 -15 0 -5 4 -7 9 -4 5 4 7 -2 4 -12 -10 -38 -28 -19 -24 25 3 42 -11 59
-23 28 -3 -8 -1 -15 5 -15 11 0 6 -50 -6 -70 -4 -6 -1 -18 7 -28 12 -16 11
-16 -12 -1 -25 16 -25 16 -27 -14 -3 -33 -19 -57 -39 -57 -8 0 -14 -5 -14 -11
0 -5 -4 -8 -8 -5 -5 3 -18 -3 -28 -12 -29 -27 -51 -33 -64 -17 -7 8 -17 12
-23 8 -5 -3 -43 -7 -83 -8 -53 -2 -77 1 -85 11 -6 8 -18 14 -25 14 -8 0 -13 3
-13 8 3 18 -2 26 -10 13 -6 -10 -13 -6 -27 18 -11 18 -24 29 -32 26 -10 -4
-12 4 -7 31 l5 36 -24 -15 c-13 -9 -26 -13 -30 -10 -9 10 15 34 27 26 6 -3 7
-1 3 5 -4 6 -13 9 -21 5 -8 -3 -15 -1 -16 3 -1 5 -3 23 -5 39 -2 17 -5 41 -8
55 -2 14 -5 28 -5 32 -1 4 -8 5 -16 2 -10 -4 -15 0 -15 16 0 28 -19 62 -31 55
-5 -4 -9 7 -9 24 0 16 6 31 13 34 9 3 9 7 -2 20 -24 30 30 20 85 -15 l49 -32
140 -1 c99 0 147 4 164 13 34 20 13 33 -34 22 -22 -6 -77 -9 -121 -9 -45 1
-86 -1 -91 -4 -10 -7 -22 1 -41 25 -12 15 -12 20 2 34 9 9 25 14 36 11 10 -3
20 -1 22 4 2 5 35 11 73 14 39 2 85 8 104 14 23 7 40 7 52 0 11 -5 23 -7 28
-4 5 3 21 0 35 -6 27 -12 34 -33 16 -44 -5 -3 -10 -11 -10 -16 0 -14 41 -1 66
22 24 22 42 24 68 4 15 -11 17 -22 13 -52 -7 -43 6 -79 16 -43 3 12 10 19 16
16 6 -4 12 9 16 31 3 21 10 59 15 84 17 85 -23 170 -138 292 -24 25 -28 27
-39 12 -13 -18 -7 -45 9 -45 18 0 44 -37 63 -87 10 -27 28 -58 41 -71 29 -28
31 -42 4 -42 -11 0 -20 5 -20 11 0 8 -5 8 -15 -1 -8 -7 -13 -16 -10 -20 3 -5
1 -11 -4 -14 -5 -4 -12 4 -14 16 -4 19 -5 18 -6 -6 -1 -26 -3 -28 -28 -21 -16
4 -107 6 -203 5 -253 -4 -254 -4 -265 -16 -5 -6 -18 -14 -28 -17 -14 -5 -16
-2 -11 20 7 25 5 26 -24 20 -20 -4 -32 -2 -36 6 -2 7 -5 4 -5 -6 -1 -10 -5
-16 -11 -12 -6 3 -5 15 2 31 8 18 14 21 20 12 5 -9 8 -7 8 7 0 12 -4 25 -9 30
-11 12 31 104 59 127 19 15 19 48 0 48 -10 0 -90 -82 -90 -92 0 -4 -16 -22
-35 -39 -26 -24 -32 -35 -25 -49 12 -22 -12 -115 -36 -141 -16 -18 -16 -19 -1
-13 13 5 17 1 17 -15 0 -23 -1 -22 -44 16 -8 7 -16 9 -20 6 -3 -4 -6 0 -6 7 0
8 -12 3 -29 -14 l-29 -27 -5 33 c-16 100 -20 118 -29 118 -6 0 -7 -16 -3 -39
6 -35 3 -42 -18 -56 -14 -9 -32 -13 -43 -9 -28 10 -54 35 -54 51 0 8 -9 24
-21 36 -20 21 -20 22 -1 25 17 3 18 8 11 49 -5 26 -16 58 -25 71 -22 33 -15
165 9 190 24 23 34 6 12 -18 -24 -26 -24 -110 0 -166 22 -52 32 -33 41 74 7
85 13 89 45 32 12 -23 15 -7 26 160 8 125 9 209 3 258 -14 108 1 176 58 261
21 32 62 69 62 56 0 -3 13 9 28 26 22 25 37 32 77 35 28 3 95 16 150 29 196
47 321 76 360 85 22 5 56 13 75 18 50 12 67 8 148 -33z m465 -25 c32 0 57 -4
57 -10 0 -17 -212 -8 -218 9 -4 11 5 13 49 8 30 -4 80 -7 112 -7z m363 -62
c-7 -24 -27 -77 -44 -118 -16 -41 -33 -82 -36 -90 -3 -8 -4 10 -2 40 4 54 43
176 53 166 3 -2 -3 -25 -12 -51 -10 -25 -15 -48 -12 -51 8 -9 39 95 33 112 -3
8 -2 12 4 9 6 -3 10 1 10 9 0 9 4 16 10 16 5 0 4 -18 -4 -42z m263 -105 c-3
-95 -8 -103 -74 -124 -32 -10 -61 -16 -63 -14 -2 2 -1 35 3 72 l7 69 56 21
c31 11 60 21 65 22 4 0 6 -20 6 -46z m-862 -15 c-3 -8 -6 -5 -6 6 -1 11 2 17
5 13 3 -3 4 -12 1 -19z m83 -92 c0 -12 -5 -7 -19 24 -11 24 -11 24 3 6 9 -11
16 -24 16 -30z m-1730 -39 c0 -21 -8 -41 -20 -52 -19 -18 -20 -17 -20 3 0 12
-3 21 -7 20 -14 -4 -63 34 -63 48 0 10 15 14 55 14 l55 0 0 -33z m1804 17 c3
-8 2 -12 -4 -9 -6 3 -10 10 -10 16 0 14 7 11 14 -7z m353 -16 c-3 -8 -6 -5 -6
6 -1 11 2 17 5 13 3 -3 4 -12 1 -19z m-1869 -49 c-3 -34 -25 -39 -31 -6 -3 14
-5 7 -7 -18 -1 -22 -2 -43 -1 -47 0 -5 -3 -8 -8 -8 -16 0 -21 73 -6 96 21 33
56 21 53 -17z m1517 31 c3 -5 2 -10 -4 -10 -5 0 -13 5 -16 10 -3 6 -2 10 4 10
5 0 13 -4 16 -10z m305 -5 c0 -9 -9 -15 -22 -15 -21 0 -21 0 -2 15 24 18 24
18 24 0z m-1959 -168 c-8 -20 -15 -24 -32 -20 -20 6 -22 4 -16 -27 4 -18 7
-66 7 -106 l0 -74 65 0 65 0 0 71 c0 89 17 160 36 152 8 -3 14 -10 13 -17 -1
-6 -1 -57 0 -113 l1 -103 26 0 c16 0 24 -5 22 -12 -8 -24 -126 -21 -198 6
l-65 24 4 83 c3 88 13 129 31 129 6 0 10 31 10 76 0 64 2 75 15 70 10 -4 16 2
17 17 1 12 4 -12 5 -54 2 -42 -1 -87 -6 -102z m2107 151 c7 -7 12 -9 12 -5 0
4 9 3 21 -3 11 -6 18 -17 16 -23 -4 -14 -187 -47 -187 -34 0 5 -7 4 -15 -3 -8
-7 -15 -8 -15 -2 0 5 7 15 15 22 8 7 15 19 15 26 0 10 16 14 58 15 55 2 55 2
17 9 l-40 7 46 2 c25 0 50 -4 57 -11z m-334 -23 c8 -8 19 -15 25 -15 5 0 12
-9 16 -20 5 -16 12 -18 38 -13 18 3 42 12 55 19 12 8 22 10 22 4 0 -15 -41
-37 -82 -44 -27 -5 -38 -12 -40 -27 -4 -25 -105 -66 -122 -49 -15 15 -39 12
-33 -4 9 -22 -31 -28 -43 -6 -5 9 -6 20 -3 24 10 9 13 36 4 36 -4 0 -7 18 -6
40 0 29 5 42 18 46 9 3 17 10 17 15 0 16 117 11 134 -6z m-1674 -95 c0 -11 -2
-20 -4 -20 -2 0 -6 9 -9 20 -3 11 -1 20 4 20 5 0 9 -9 9 -20z m-389 -16 c37 5
49 4 49 -7 0 -22 -22 -37 -57 -37 -35 0 -83 -18 -83 -31 0 -14 58 -39 74 -33
8 3 18 14 21 25 10 31 25 11 25 -32 0 -37 -12 -51 -25 -28 -5 7 -12 6 -23 -4
-34 -29 -50 -27 -67 6 -28 53 -36 89 -24 104 6 7 9 21 6 32 -4 17 -2 18 25 9
16 -6 51 -7 79 -4z m213 -39 c-4 -8 -7 -15 -9 -15 -2 0 -5 7 -9 15 -3 9 0 15
9 15 9 0 12 -6 9 -15z m2496 -9 c0 -3 -4 -8 -10 -11 -5 -3 -10 -1 -10 4 0 6 5
11 10 11 6 0 10 -2 10 -4z m-13 -68 c-3 -8 -6 -5 -6 6 -1 11 2 17 5 13 3 -3 4
-12 1 -19z m-17 3 c0 -5 -9 -11 -20 -14 -11 -3 -20 -1 -20 3 0 5 8 11 18 13 9
3 18 5 20 6 1 0 2 -3 2 -8z m-517 -8 c-7 -2 -21 -2 -30 0 -10 3 -4 5 12 5 17
0 24 -2 18 -5z m208 -221 c-7 -108 -15 -199 -18 -202 -3 -3 -3 38 1 90 3 52 9
149 12 215 4 66 9 114 12 107 2 -8 -1 -102 -7 -210z m516 131 c-3 -10 -5 -2
-5 17 0 19 2 27 5 18 2 -10 2 -26 0 -35z m-147 12 c0 -14 -4 -25 -10 -25 -5 0
-10 11 -10 25 0 14 5 25 10 25 6 0 10 -11 10 -25z m-62 -8 c0 -15 -7 -23 -19
-24 -25 -2 -26 34 -1 40 9 3 18 5 18 6 1 0 2 -9 2 -22z m29 3 c1 -11 -2 -20
-8 -20 -5 0 -9 9 -9 20 0 11 4 20 8 20 4 0 8 -9 9 -20z m93 -30 c0 -5 -2 -10
-4 -10 -3 0 -8 5 -11 10 -3 6 -1 10 4 10 6 0 11 -4 11 -10z m-57 -20 c-7 -27
5 -25 17 3 10 22 10 22 7 -3 -3 -35 -37 -40 -37 -6 0 14 4 26 9 26 5 0 7 -9 4
-20z m-23 -10 c0 -11 -4 -20 -10 -20 -5 0 -10 9 -10 20 0 11 5 20 10 20 6 0
10 -9 10 -20z m-40 -10 c0 -22 -15 -27 -23 -7 -3 7 -6 6 -6 -5 -1 -22 -37 -19
-38 3 -2 17 13 25 50 28 11 1 17 -6 17 -19z m-2694 -43 c46 6 63 -10 22 -21
-60 -16 -116 -1 -105 28 4 9 2 16 -3 16 -6 0 -10 8 -10 18 0 12 7 8 26 -15 23
-30 28 -32 70 -26z m2611 16 c-3 -10 -5 -4 -5 12 0 17 2 24 5 18 2 -7 2 -21 0
-30z m193 -13 c0 -11 -4 -20 -10 -20 -5 0 -10 9 -10 20 0 11 5 20 10 20 6 0
10 -9 10 -20z m-80 0 c0 -5 -5 -10 -11 -10 -5 0 -7 5 -4 10 3 6 8 10 11 10 2
0 4 -4 4 -10z m36 -7 c-3 9 -1 17 5 17 17 0 5 -35 -14 -38 -12 -3 -17 3 -17
19 0 22 0 22 16 3 13 -16 15 -16 10 -1z m-70 -12 c-2 -30 -36 -42 -37 -13 0
14 -2 14 -9 -3 -8 -19 -9 -19 -9 2 -1 20 12 28 45 29 6 1 11 -6 10 -15z m201
-118 c-3 -10 -5 -4 -5 12 0 17 2 24 5 18 2 -7 2 -21 0 -30z m-790 -65 c-3 -8
-6 -5 -6 6 -1 11 2 17 5 13 3 -3 4 -12 1 -19z m203 -58 c0 -5 -4 -10 -10 -10
-5 0 -10 5 -10 10 0 6 5 10 10 10 6 0 10 -4 10 -10z m433 3 c-7 -2 -21 -2 -30
0 -10 3 -4 5 12 5 17 0 24 -2 18 -5z m-80 -10 c-7 -2 -19 -2 -25 0 -7 3 -2 5
12 5 14 0 19 -2 13 -5z m-2592 -40 c0 -5 2 -17 4 -28 3 -16 -7 -25 -48 -43
-75 -32 -120 -28 -96 8 7 12 11 12 17 2 7 -10 15 -8 36 9 14 11 33 18 41 15 9
-3 15 0 15 9 0 20 -20 29 -33 16 -17 -17 -31 -13 -17 4 13 15 79 21 81 8z
m2739 -50 c0 -17 -12 -16 -35 1 -19 13 -18 14 8 13 15 -1 27 -8 27 -14z
m-2385 -44 c10 -15 2 -19 -24 -12 -17 4 -19 8 -9 14 18 12 26 11 33 -2z m-360
-28 c-17 -14 -103 -43 -117 -39 -24 8 60 43 112 47 8 1 10 -2 5 -8z m585 -8
c0 -9 -23 -13 -80 -13 -65 0 -80 3 -80 15 0 13 14 15 80 13 56 -2 80 -7 80
-15z m183 -3 c-4 -16 -2 -19 11 -14 21 8 20 2 -4 -19 -19 -16 -20 -16 -20 18
0 19 4 35 9 35 5 0 7 -9 4 -20z m-100 -60 c-7 -62 -14 -68 -27 -20 -6 19 -5
21 3 10 9 -13 11 -13 11 3 0 9 -7 17 -15 17 -9 0 -14 7 -12 18 10 64 47 39 40
-28z m2055 53 c-15 -2 -42 -2 -60 0 -18 2 -6 4 27 4 33 0 48 -2 33 -4z m-1088
-143 c0 -5 -5 -10 -11 -10 -5 0 -7 5 -4 10 3 6 8 10 11 10 2 0 4 -4 4 -10z
m-89 -177 c-12 -20 -14 -14 -5 12 4 9 9 14 11 11 3 -2 0 -13 -6 -23z m-931
-18 c-7 -8 -22 -15 -34 -14 -18 0 -16 3 9 14 39 18 40 18 25 0z m-145 -175
c-14 -6 -16 -9 -5 -10 8 -1 4 -5 -10 -9 -28 -9 -56 -2 -43 9 9 9 39 17 63 18
9 0 7 -3 -5 -8z m136 -153 c-12 -12 -25 66 -15 95 6 19 9 13 16 -31 5 -32 5
-58 -1 -64z m46 41 c-3 -8 -6 -5 -6 6 -1 11 2 17 5 13 3 -3 4 -12 1 -19z
m-310 6 c-3 -3 -12 -4 -19 -1 -8 3 -5 6 6 6 11 1 17 -2 13 -5z m1203 -524 c-8
-5 -19 -10 -25 -10 -5 0 -3 5 5 10 8 5 20 10 25 10 6 0 3 -5 -5 -10z m135 -61
c11 -17 -1 -21 -15 -4 -8 9 -8 15 -2 15 6 0 14 -5 17 -11z"/>
<path d="M2065 2965 c32 -14 41 -13 30 4 -3 6 -18 11 -33 10 l-27 -1 30 -13z"/>
<path d="M2315 2330 c-8 -13 -8 -108 0 -149 2 -11 8 -29 14 -40 6 -11 10 -37
7 -58 -2 -21 -1 -30 1 -20 5 20 19 22 27 5 3 -7 3 -2 0 11 -4 14 -2 21 4 17 5
-3 10 13 10 39 1 32 -3 45 -13 45 -19 0 -27 32 -16 61 5 13 10 18 10 12 1 -7
6 -13 11 -13 6 0 10 23 10 50 0 36 -4 50 -14 50 -8 0 -17 -8 -21 -17 -7 -17
-8 -17 -14 1 -6 15 -9 17 -16 6z"/>
<path d="M1886 2271 c-30 -33 -19 -38 80 -32 12 0 32 10 45 22 l24 20 -52 -5
c-31 -3 -53 -1 -53 4 0 17 -26 11 -44 -9z"/>
<path d="M1435 2243 c-11 -2 -40 -14 -65 -26 l-45 -22 60 -3 c52 -3 74 -12 75
-33 0 -3 -36 -13 -80 -23 -60 -14 -89 -27 -120 -53 -22 -19 -40 -41 -40 -49 0
-8 -11 -19 -25 -24 -33 -13 -32 -16 9 -15 18 1 50 11 70 23 34 20 161 51 170
41 2 -2 6 -13 8 -23 2 -14 -8 -26 -37 -43 -54 -30 -41 -29 71 9 81 27 94 35
94 54 0 15 6 21 18 20 12 -1 18 8 20 30 3 28 -3 35 -44 63 -28 18 -40 31 -30
31 10 0 14 5 11 11 -13 19 -86 39 -120 32z m-71 -169 c5 -14 4 -15 -9 -4 -17
14 -19 20 -6 20 5 0 12 -7 15 -16z"/>
<path d="M1863 2209 c-18 -5 -40 -20 -49 -34 -20 -31 -15 -70 9 -69 9 1 17 -2
17 -7 0 -5 8 -9 18 -10 10 0 12 -3 5 -6 -48 -19 34 -53 124 -52 l68 1 -50 8
c-94 14 -123 33 -70 46 14 3 23 10 20 14 -2 4 16 10 41 13 44 5 69 21 58 39
-9 14 13 9 25 -6 11 -13 40 -22 100 -33 19 -3 15 3 -23 36 -46 40 -59 44 -166
56 -30 3 -64 8 -75 10 -11 2 -35 -1 -52 -6z m73 -86 c-10 -10 -19 5 -10 18 6
11 8 11 12 0 2 -7 1 -15 -2 -18z"/>
<path d="M1258 2179 c-10 -5 -18 -7 -18 -4 0 4 -13 -3 -30 -15 -31 -22 -41
-60 -15 -60 8 0 14 6 13 13 -2 6 5 11 15 11 9 -1 17 2 17 7 0 5 6 9 13 9 8 0
24 11 37 25 22 23 22 25 4 25 -10 0 -27 -5 -36 -11z"/>
<path d="M2390 2100 c0 -5 5 -10 11 -10 5 0 7 5 4 10 -3 6 -8 10 -11 10 -2 0
-4 -4 -4 -10z"/>
<path d="M2402 2023 c-8 -15 -7 -34 7 -79 l17 -59 7 40 c10 59 9 79 -7 100
-13 18 -14 18 -24 -2z"/>
<path d="M1095 1820 c-4 -7 -9 -33 -10 -59 l-3 -46 19 43 c12 28 16 49 10 59
-6 12 -10 13 -16 3z"/>
<path d="M1805 1770 c-12 -4 -27 -15 -34 -24 -17 -20 -31 -21 -31 0 0 13 -7
15 -39 9 -24 -4 -42 -2 -46 4 -3 6 -35 11 -70 11 -57 0 -64 -2 -58 -17 4 -10
11 -21 16 -25 6 -3 9 -29 8 -58 l-1 -51 105 5 c58 3 111 9 118 13 7 4 20 6 30
5 11 -2 17 3 17 15 0 10 3 29 7 42 4 17 3 22 -5 17 -7 -4 -12 -4 -12 1 0 15
15 30 45 46 l30 16 -30 0 c-16 0 -39 -4 -50 -9z"/>
<path d="M1126 1671 c-4 -7 -5 -15 -2 -18 9 -9 19 4 14 18 -4 11 -6 11 -12 0z"/>
<path d="M1305 1650 c-3 -5 -1 -10 4 -10 6 0 11 5 11 10 0 6 -2 10 -4 10 -3 0
-8 -4 -11 -10z"/>
<path d="M1527 1653 c-4 -3 -7 -16 -6 -27 0 -19 1 -19 10 3 10 24 8 36 -4 24z"/>
<path d="M1280 1575 c1 -26 2 -28 11 -12 8 14 8 22 0 30 -8 8 -11 3 -11 -18z"/>
<path d="M2090 1430 c0 -5 5 -10 11 -10 5 0 7 5 4 10 -3 6 -8 10 -11 10 -2 0
-4 -4 -4 -10z"/>
<path d="M2180 1431 c0 -7 -4 -10 -9 -7 -5 3 -12 -1 -15 -10 -10 -25 -1 -27
19 -4 10 11 15 23 12 27 -4 3 -7 1 -7 -6z"/>
<path d="M2040 1405 c0 -8 5 -15 10 -15 6 0 10 -7 10 -15 0 -10 9 -14 25 -13
25 2 34 21 15 33 -5 3 -10 -1 -10 -10 0 -9 -5 -13 -11 -10 -6 4 -8 14 -5 22 3
8 1 11 -4 8 -6 -3 -10 -1 -10 4 0 6 -4 11 -10 11 -5 0 -10 -7 -10 -15z"/>
<path d="M1654 1321 c4 -6 11 -9 16 -6 5 3 12 -1 17 -8 11 -19 73 -28 73 -11
0 18 -9 22 -64 29 -35 5 -46 4 -42 -4z"/>
<path d="M2151 1304 c0 -11 3 -14 6 -6 3 7 2 16 -1 19 -3 4 -6 -2 -5 -13z"/>
<path d="M2468 2263 c7 -3 16 -2 19 1 4 3 -2 6 -13 5 -11 0 -14 -3 -6 -6z"/>
<path d="M493 2519 c-7 -7 -54 -10 -132 -7 -67 1 -121 0 -121 -3 0 -7 114 -17
228 -19 76 -1 82 0 82 19 0 15 -6 21 -23 21 -13 0 -28 -5 -34 -11z"/>
<path d="M188 2513 c7 -3 16 -2 19 1 4 3 -2 6 -13 5 -11 0 -14 -3 -6 -6z"/>
<path d="M350 1502 c0 -14 23 -32 41 -32 12 0 16 6 12 20 -3 13 -14 20 -29 20
-13 0 -24 -4 -24 -8z"/>
<path d="M218 1393 c6 -2 18 -2 25 0 6 3 1 5 -13 5 -14 0 -19 -2 -12 -5z"/>
<path d="M308 1393 c12 -2 30 -2 40 0 9 3 -1 5 -23 4 -22 0 -30 -2 -17 -4z"/>
<path d="M2260 1360 c0 -5 5 -10 11 -10 5 0 7 5 4 10 -3 6 -8 10 -11 10 -2 0
-4 -4 -4 -10z"/>
<path d="M2260 1167 c0 -39 3 -45 33 -59 46 -22 95 -65 113 -101 9 -16 19 -59
24 -96 7 -65 7 -65 9 36 0 56 -4 112 -10 125 -11 23 -106 105 -146 127 -22 11
-23 10 -23 -32z"/>
<path d="M796 942 c-3 -5 1 -15 9 -22 16 -14 20 -3 6 19 -5 8 -11 9 -15 3z"/>
<path d="M731 926 c-8 -10 -9 -16 -1 -21 5 -3 10 -5 11 -3 4 18 7 38 4 38 -1
0 -8 -6 -14 -14z"/>
<path d="M660 920 c8 -5 20 -10 25 -10 6 0 3 5 -5 10 -8 5 -19 10 -25 10 -5 0
-3 -5 5 -10z"/>
<path d="M231 890 c14 -19 49 -74 78 -122 57 -96 82 -121 32 -34 -50 90 -98
161 -117 176 -13 10 -10 3 7 -20z"/>
<path d="M488 913 c6 -2 18 -2 25 0 6 3 1 5 -13 5 -14 0 -19 -2 -12 -5z"/>
<path d="M1010 824 c0 -16 34 -110 64 -176 47 -105 69 -187 56 -203 -10 -12
-9 -16 3 -21 11 -4 14 -15 10 -43 -4 -26 0 -41 11 -50 9 -7 16 -26 16 -42 0
-16 4 -29 10 -29 5 0 9 -18 8 -41 -1 -22 3 -44 9 -47 6 -4 7 -15 2 -27 -4 -11
-8 -15 -8 -8 -1 7 -8 10 -17 6 -8 -3 -13 -12 -10 -19 7 -18 1 -18 -18 2 -14
13 -16 13 -16 1 0 -14 139 -67 176 -67 21 0 18 15 -25 127 -21 56 -36 104 -33
107 3 4 0 6 -6 6 -7 0 -12 8 -12 18 0 11 -8 34 -17 53 -10 19 -18 40 -19 47
-2 8 -15 39 -29 70 -15 32 -35 77 -45 102 -34 82 -110 245 -110 234z"/>
<path d="M960 500 c37 -101 120 -273 116 -243 -1 12 -5 26 -9 29 -4 4 -7 15
-7 25 0 27 -103 254 -120 264 -6 3 4 -31 20 -75z"/>
<path d="M793 462 c-5 -4 -15 -16 -21 -28 -10 -18 -8 -23 16 -34 15 -8 30 -13
35 -12 4 1 7 -2 7 -7 0 -5 9 -7 21 -4 17 5 19 2 14 -19 -5 -18 -2 -27 9 -31 9
-4 16 -2 16 3 0 6 -4 10 -9 10 -6 0 -8 15 -5 33 3 17 1 37 -3 42 -17 22 -70
53 -80 47z"/>
<path d="M1108 453 c7 -3 16 -2 19 1 4 3 -2 6 -13 5 -11 0 -14 -3 -6 -6z"/>
<path d="M910 312 c0 -5 6 -17 14 -27 7 -10 11 -27 8 -37 -2 -10 1 -18 7 -18
6 0 11 -8 11 -18 0 -13 19 -27 60 -47 33 -16 62 -27 64 -24 6 6 -77 128 -106
157 -22 21 -58 30 -58 14z"/>
<path d="M1102 183 c2 -10 11 -19 21 -21 23 -5 21 10 -4 26 -18 12 -20 11 -17
-5z"/>
<path d="M1365 190 c-18 -8 -17 -9 8 -9 15 -1 27 4 27 9 0 12 -8 12 -35 0z"/>
</g>
</svg>
